<svg width="48" height="48" viewBox="0 0 48 48" xmlns="http://www.w3.org/2000/svg"><path fill-rule="evenodd" clip-rule="evenodd" d="M24 48C37.2548 48 48 37.2548 48 24C48 10.7452 37.2548 0 24 0C10.7452 0 0 10.7452 0 24C0 37.2548 10.7452 48 24 48ZM28.4082 23.1718C28.4946 23.2089 28.5799 23.2476 28.6639 23.2879C29.8512 23.8574 30.7194 24.7198 31.1748 25.7815C31.8096 27.2621 31.8676 29.6739 29.9417 31.598C28.4696 33.0687 26.6827 33.7324 24.1477 33.75H24.1362C21.2849 33.7303 19.0922 32.7707 17.6191 30.8982C16.3083 29.2319 15.6322 26.9132 15.6094 24.0069L15.6094 24L15.6094 23.9931C15.6322 21.0868 16.3083 18.7682 17.6191 17.1018C19.0922 15.2292 21.2849 14.2698 24.1362 14.25H24.1477C27.0049 14.2698 29.2224 15.2257 30.7386 17.0911C31.4867 18.0114 32.0365 19.1212 32.3859 20.409L30.7459 20.8465C30.4577 19.8003 30.0205 18.9029 29.4406 18.1894C28.2579 16.7344 26.4753 15.9879 24.142 15.9705C21.8254 15.9877 20.0734 16.7307 18.9343 18.1787C17.8677 19.5347 17.3164 21.4932 17.2958 24C17.3164 26.5068 17.8677 28.4653 18.9343 29.8213C20.0734 31.2693 21.8254 32.0123 24.142 32.0294C26.2304 32.0141 27.6122 31.5173 28.7618 30.3688C30.0739 29.0578 30.0494 27.4498 29.6298 26.4712C29.383 25.8956 28.9361 25.4167 28.3331 25.0528C28.1863 26.1473 27.8537 27.016 27.3278 27.6863C26.6353 28.569 25.6427 29.0517 24.3775 29.1211C23.4194 29.1734 22.4976 28.9423 21.7818 28.4699C20.9353 27.911 20.4398 27.0554 20.3868 26.0609C20.2824 24.1003 21.8377 22.6894 24.2569 22.55C25.1157 22.5008 25.9191 22.5396 26.6619 22.6659C26.5633 22.0627 26.3641 21.5848 26.0664 21.2389C25.6572 20.7639 25.0249 20.5203 24.1871 20.5149L24.1638 20.5149C23.4912 20.5149 22.5777 20.7031 21.9957 21.5861L20.5963 20.6262C21.3754 19.444 22.6412 18.7943 24.1632 18.7943L24.1977 18.7944C26.7423 18.8107 28.2577 20.3984 28.4082 23.1718ZM22.0707 25.9675C22.1251 26.9869 23.2266 27.4628 24.2869 27.4031C25.325 27.3461 26.5034 26.9387 26.7043 24.4299C26.1657 24.3122 25.5733 24.2507 24.94 24.2507C24.7476 24.2507 24.5517 24.2563 24.352 24.2678C22.6086 24.3683 22.0305 25.2116 22.0707 25.9675Z"></path></svg>